HIERARCHY
ROOT SimulationBone
{
	OFFSET 0.000000 0.000000 0.000000
	CHANNELS 6 Xposition Yposition Zposition Zrotation Yrotation Xrotation 
	JOINT Hips
	{
		OFFSET 0.000000 0.000000 0.000000
		CHANNELS 6 Xposition Yposition Zposition Zrotation Yrotation Xrotation 
		JOINT LeftUpLeg
		{
			OFFSET 0.103457 1.857824 10.548509
			CHANNELS 3 Zrotation Yrotation Xrotation
			JOINT LeftLeg
			{
				OFFSET 43.500000 -0.000023 0.000006
				CHANNELS 3 Zrotation Yrotation Xrotation
				JOINT LeftFoot
				{
					OFFSET 42.372192 0.000011 -0.000009
					CHANNELS 3 Zrotation Yrotation Xrotation
					JOINT LeftToe
					{
						OFFSET 17.300005 0.000002 -0.000010
						CHANNELS 3 Zrotation Yrotation Xrotation
						End Site
						{
							OFFSET 0.000000 0.000000 0.000000
						}
					}
				}
			}
		}
		JOINT RightUpLeg
		{
			OFFSET 0.103458 1.857836 -10.548506
			CHANNELS 3 Zrotation Yrotation Xrotation
			JOINT RightLeg
			{
				OFFSET 43.500038 -0.000023 0.000017
				CHANNELS 3 Zrotation Yrotation Xrotation
				JOINT RightFoot
				{
					OFFSET 42.372269 -0.000019 0.000007
					CHANNELS 3 Zrotation Yrotation Xrotation
					JOINT RightToe
					{
						OFFSET 17.299999 -0.000003 0.000008
						CHANNELS 3 Zrotation Yrotation Xrotation
						End Site
						{
							OFFSET 0.000000 0.000000 0.000000
						}
					}
				}
			}
		}
		JOINT Spine
		{
			OFFSET 6.901969 -2.603729 0.000003
			CHANNELS 3 Zrotation Yrotation Xrotation
			JOINT Spine1
			{
				OFFSET 12.588093 -0.000007 0.000001
				CHANNELS 3 Zrotation Yrotation Xrotation
				JOINT Spine2
				{
					OFFSET 12.343206 0.000014 -0.000007
					CHANNELS 3 Zrotation Yrotation Xrotation
					JOINT Neck
					{
						OFFSET 25.832899 -0.000010 0.000002
						CHANNELS 3 Zrotation Yrotation Xrotation
						JOINT Head
						{
							OFFSET 11.766599 0.000010 -0.000001
							CHANNELS 3 Zrotation Yrotation Xrotation
							End Site
							{
								OFFSET 0.000000 0.000000 0.000000
							}
						}
					}
					JOINT LeftShoulder
					{
						OFFSET 19.745895 -1.480371 6.000111
						CHANNELS 3 Zrotation Yrotation Xrotation
						JOINT LeftArm
						{
							OFFSET 11.284124 -0.000010 -0.000007
							CHANNELS 3 Zrotation Yrotation Xrotation
							JOINT LeftForeArm
							{
								OFFSET 33.000061 0.000006 0.000028
								CHANNELS 3 Zrotation Yrotation Xrotation
								JOINT LeftHand
								{
									OFFSET 25.200001 0.000019 0.000008
									CHANNELS 3 Zrotation Yrotation Xrotation
									End Site
									{
										OFFSET 0.000000 0.000000 0.000000
									}
								}
							}
						}
					}
					JOINT RightShoulder
					{
						OFFSET 19.746101 -1.480375 -6.000078
						CHANNELS 3 Zrotation Yrotation Xrotation
						JOINT RightArm
						{
							OFFSET 11.284128 -0.000010 -0.000011
							CHANNELS 3 Zrotation Yrotation Xrotation
							JOINT RightForeArm
							{
								OFFSET 33.000095 0.000022 0.000002
								CHANNELS 3 Zrotation Yrotation Xrotation
								JOINT RightHand
								{
									OFFSET 25.199768 0.000129 0.000422
									CHANNELS 3 Zrotation Yrotation Xrotation
									End Site
									{
										OFFSET 0.000000 0.000000 0.000000
									}
								}
							}
						}
					}
				}
			}
		}
	}
}
MOTION
Frames: 6
Frame Time: 0.033333
-294.279021 0.000000 276.512022 0.000000 115.301047 0.000000 -5.568383 96.662697 0.051822 81.459360 -1.185668 -177.374470 154.348000 -2.920810 167.592092 -29.365381 3.114327 -0.422648 69.177645 -6.429135 -18.959871 21.454562 0.003110 0.000019 159.506910 3.677194 -162.803733 -56.527554 -0.658090 4.077569 70.671441 -1.346443 4.638806 21.454551 -0.003093 0.000000 7.398469 -0.231122 -0.259025 4.785154 -0.451370 -0.527311 4.467060 -0.454684 -0.524574 -5.313880 -20.181976 -4.975029 -36.456019 13.170865 -18.530568 178.500464 -77.019522 0.096392 23.088980 53.716617 38.776295 -103.326303 -0.662699 2.989184 -7.038086 -1.282541 3.902847 172.933327 85.012919 -5.511199 12.942586 -63.746067 -29.808076 -117.917793 -4.117789 -3.239391 -7.986036 7.402574 -18.926041 
-293.636105 0.000000 279.002013 0.000000 115.981272 0.000000 -5.532832 95.794884 0.261524 80.793896 -0.731293 -176.465541 151.356896 -3.212495 166.174937 -34.973929 3.665958 -5.296784 75.303710 -0.005564 -12.908560 21.454557 0.003106 0.000017 164.810047 -0.342698 -164.679153 -49.767238 -0.710394 2.413086 72.418631 -0.314940 4.392943 21.454555 -0.003095 0.000001 7.296529 -0.203888 -0.171587 4.580848 -0.400821 -0.351051 4.262749 -0.403070 -0.348618 -4.632860 -20.511852 -5.545958 -36.482619 14.243945 -19.719308 -179.769773 -77.963071 -1.687070 22.130245 53.405273 37.883197 -107.309696 -0.326425 3.141694 -7.202015 1.190027 3.436632 176.695587 85.239757 -1.714419 12.771406 -62.671104 -29.841636 -120.695617 -4.526938 -3.325126 -7.703395 8.246780 -15.343962 
-293.139551 0.000000 281.171342 0.000000 116.570866 0.000000 -5.744937 93.962852 0.170632 80.641083 -1.002504 -175.922702 148.862265 -2.794304 165.220855 -42.631391 5.050761 -8.394779 79.706641 4.033578 -7.321769 21.454558 0.003106 0.000018 169.893019 -2.914007 -167.231800 -43.068605 -0.066134 3.029245 72.023901 -1.307421 2.695249 21.454557 -0.003107 0.000001 7.289718 -0.324263 -0.014941 4.566797 -0.647653 -0.042553 4.248671 -0.648031 -0.038644 -3.820286 -20.926894 -6.016423 -36.453669 15.234269 -20.740587 -175.579739 -78.314280 -5.962810 18.928174 53.043809 34.357617 -111.220902 -0.014087 3.290290 -7.244439 4.363111 4.101429 -175.513390 85.471430 6.138123 11.936871 -61.835711 -29.410538 -122.978799 -4.718138 -3.403680 -7.746046 8.657679 -12.629477 
-292.780537 0.000000 283.034057 0.000000 117.073139 0.000000 -6.422920 90.968033 -0.231354 80.328051 -2.608689 -175.949345 146.158822 -1.532102 167.048751 -51.941219 4.670104 -9.634355 81.057372 5.613863 -4.555301 21.454557 0.003107 0.000016 174.344267 -3.454191 -169.699124 -36.343734 0.718238 6.021239 73.593471 -3.259814 3.405023 21.454545 -0.003093 0.000000 7.251969 -0.693132 0.232927 4.488745 -1.394645 0.439057 4.170556 -1.392096 0.447472 -2.658283 -21.524090 -6.480540 -36.599937 15.693432 -21.463661 -173.393190 -78.136681 -8.189270 15.186188 52.708112 29.227076 -114.486094 0.290288 3.408938 -7.406573 6.807312 4.945145 -166.834201 85.457435 14.880687 10.855594 -60.733134 -28.885345 -124.457494 -4.797106 -3.456632 -7.069700 9.291242 -10.239080 
-292.550240 0.000000 284.604210 0.000000 117.491335 0.000000 -7.382887 87.717979 -0.767708 79.854555 -2.646688 -177.067440 144.254606 -2.685597 170.142690 -60.055169 2.695479 -8.803888 80.386402 4.598249 -6.504883 21.454560 0.003111 0.000015 175.893340 -3.018404 -167.812489 -34.414229 1.107279 4.652702 89.416103 -3.191867 -0.007667 21.454551 -0.003091 0.000001 7.191483 -0.692109 0.736953 4.361523 -1.411160 1.447663 4.043451 -1.402544 1.456145 -1.616966 -21.686462 -6.849736 -37.377910 15.160904 -21.554072 -172.797010 -77.674496 -8.793507 10.908761 53.361461 22.372785 -116.736102 0.612824 3.481385 -7.486802 8.258998 4.891278 -158.770684 85.251621 23.006312 8.196935 -59.659080 -26.329256 -125.142494 -4.934308 -3.474058 -7.049584 8.801290 -9.201910 
-292.439838 0.000000 285.895849 0.000000 117.828604 0.000000 -8.504684 84.707031 -1.243404 80.206837 -0.073259 179.476178 144.473377 -8.104392 171.060503 -64.032409 1.223943 -4.797457 90.489249 1.298484 -13.406838 21.454553 0.003109 0.000018 175.964101 -4.464291 -166.584721 -35.213809 1.770918 2.902119 101.547503 -2.111620 -2.899224 21.454553 -0.003089 0.000001 7.469337 -0.005417 1.494592 4.924861 -0.073910 2.987595 4.607235 -0.056010 2.987992 -2.522121 -21.474094 -6.353752 -39.451210 14.404159 -21.148793 -164.640385 -73.625396 -17.138917 2.770285 53.126410 12.951460 -115.890893 0.672574 3.441812 -8.737191 6.934937 4.330544 -156.099097 83.738754 25.727948 -0.378526 -57.344253 -20.069462 -122.514005 -4.517245 -3.398856 -7.322405 7.626116 -11.255014 
